HIERARCHY
ROOT Hips
{
	OFFSET 33.886600 -26.735415 95.601089
	CHANNELS 6 Xposition Yposition Zposition Xrotation Yrotation Zrotation
	JOINT spine
	{
		OFFSET 0.000000 -0.467661 8.132492
		CHANNELS 3 Xrotation Yrotation Zrotation
		JOINT spine1
		{
			OFFSET 0.000000 -0.000002 10.349800
			CHANNELS 3 Xrotation Yrotation Zrotation
			JOINT spine2
			{
				OFFSET 0.000000 -0.000002 9.916992
				CHANNELS 3 Xrotation Yrotation Zrotation
				JOINT Neck
				{
					OFFSET 0.000000 -1.213903 25.461006
					CHANNELS 3 Xrotation Yrotation Zrotation
					JOINT Head
					{
						OFFSET 0.000000 0.000000 7.692444
						CHANNELS 3 Xrotation Yrotation Zrotation
						End Site
						{
							OFFSET 0.000000 6.140625 18.619995
						}
					}
				}
				JOINT RightShoulder
				{
					OFFSET -4.175751 0.581444 10.709602
					CHANNELS 3 Xrotation Yrotation Zrotation
					JOINT RightArm
					{
						OFFSET 0.000000 -0.000002 14.046600
						CHANNELS 3 Xrotation Yrotation Zrotation
						JOINT RightArmRoll
						{
							OFFSET 0.000000 0.000000 7.090973
							CHANNELS 3 Xrotation Yrotation Zrotation
							JOINT RightForeArm
							{
								OFFSET 0.000000 -0.000004 20.653503
								CHANNELS 3 Xrotation Yrotation Zrotation
								JOINT RightForeArmRoll
								{
									OFFSET 0.000000 -0.000002 7.957184
									CHANNELS 3 Xrotation Yrotation Zrotation
									JOINT RightHand
									{
										OFFSET 0.000000 -0.000002 15.968307
										CHANNELS 3 Xrotation Yrotation Zrotation
										End Site
										{
											OFFSET 0.000000 0.000000 0.100006
										}
									}
								}
							}
						}
					}
				}
				JOINT LeftShoulder
				{
					OFFSET 4.175751 0.581444 10.709602
					CHANNELS 3 Xrotation Yrotation Zrotation
					JOINT LeftArm
					{
						OFFSET 0.000000 -0.000002 14.046600
						CHANNELS 3 Xrotation Yrotation Zrotation
						JOINT LeftArmRoll
						{
							OFFSET 0.000000 0.000000 7.090973
							CHANNELS 3 Xrotation Yrotation Zrotation
							JOINT LeftForeArm
							{
								OFFSET 0.000000 -0.000004 20.653503
								CHANNELS 3 Xrotation Yrotation Zrotation
								JOINT LeftForeArmRoll
								{
									OFFSET 0.000000 -0.000002 7.957184
									CHANNELS 3 Xrotation Yrotation Zrotation
									JOINT LeftHand
									{
										OFFSET 0.000000 -0.000002 15.968307
										CHANNELS 3 Xrotation Yrotation Zrotation
										End Site
										{
											OFFSET 0.000000 0.000000 0.100006
										}
									}
								}
							}
						}
					}
				}
			}
		}
	}
	JOINT RightUpLeg
	{
		OFFSET -7.208340 1.108839 -1.321823
		CHANNELS 3 Xrotation Yrotation Zrotation
		JOINT RightUpLegRoll
		{
			OFFSET 0.000000 -0.000004 18.723801
			CHANNELS 3 Xrotation Yrotation Zrotation
			JOINT RightLeg
			{
				OFFSET 0.000000 0.000004 -23.186600
				CHANNELS 3 Xrotation Yrotation Zrotation
				JOINT RightLegRoll
				{
					OFFSET 0.000000 -0.000004 23.262398
					CHANNELS 3 Xrotation Yrotation Zrotation
					JOINT RightFoot
					{
						OFFSET 0.000000 -0.000002 19.362114
						CHANNELS 3 Xrotation Yrotation Zrotation
						JOINT RightToeBase
						{
							OFFSET 0.000000 -0.000004 16.185699
							CHANNELS 3 Xrotation Yrotation Zrotation
							End Site
							{
								OFFSET 0.006861 0.903522 7.838623
							}
						}
					}
				}
			}
		}
	}
	JOINT LeftUpLeg
	{
		OFFSET 7.208340 1.108839 -1.321823
		CHANNELS 3 Xrotation Yrotation Zrotation
		JOINT LeftUpLegRoll
		{
			OFFSET 0.000000 -0.000004 18.723900
			CHANNELS 3 Xrotation Yrotation Zrotation
			JOINT LeftLeg
			{
				OFFSET 0.000000 -0.000004 23.186501
				CHANNELS 3 Xrotation Yrotation Zrotation
				JOINT LeftLegRoll
				{
					OFFSET 0.000000 -0.000004 23.477509
					CHANNELS 3 Xrotation Yrotation Zrotation
					JOINT LeftFoot
					{
						OFFSET 0.000000 -0.000002 19.147003
						CHANNELS 3 Xrotation Yrotation Zrotation
						JOINT LeftToeBase
						{
							OFFSET 0.000000 -0.000004 16.185699
							CHANNELS 3 Xrotation Yrotation Zrotation
							End Site
							{
								OFFSET -0.030746 0.903522 7.838623
							}
						}
					}
				}
			}
		}
	}
}
MOTION
Frames: 13
Frame Time: 0.041667
59.402901 -17.028019 96.548897 -0.966798 -2.557874 44.053054 -0.962030 -0.247518 0.840869 2.082979 -0.500806 1.680064 3.727781 -0.480660 1.684918 -7.234331 5.808552 8.552105 3.025176 2.764215 7.049772 -10.889090 -41.951254 -11.844613 -66.442243 -214.755846 -68.894643 -0.000001 0.000004 -0.000008 45.850445 2.738110 -2.434253 -0.000007 0.000001 -2.999979 -5.000224 -7.998890 0.000125 -34.149494 53.383451 40.951905 -56.875446 121.161545 49.475882 0.000002 0.000001 0.000005 2.669988 9.233479 0.592489 0.000002 -0.000005 3.008021 -5.000230 7.998831 -0.000136 1.112413 -171.759546 7.396345 179.999991 -0.000005 -1.157000 152.408623 -3.507291 -1.699130 -0.000002 0.000004 0.523181 72.288168 6.809835 2.121148 38.971144 -6.174144 5.813414 -4.989238 179.443112 3.540755 -0.000005 -0.000004 -0.960295 -7.432667 0.274935 0.306387 -0.000002 -0.000002 0.027873 67.269488 -6.632313 -2.887755 25.456866 7.347530 0.000006 
59.407101 -17.054520 96.543701 -0.960761 -2.534404 44.148512 -0.963649 -0.241379 0.842819 2.079576 -0.488570 1.683936 3.724374 -0.468376 1.688911 -7.288579 5.882619 8.542086 3.046910 2.652850 7.034375 -10.932906 -41.613481 -11.879190 -66.432927 -214.947242 -69.122348 -0.000002 0.000004 -0.000006 44.878817 2.925485 -2.448996 -0.000004 0.000002 -2.999980 -5.000221 -7.998888 0.000125 -34.198692 53.444738 41.004802 -56.904546 121.123296 49.572113 -0.000000 0.000000 0.000004 2.746489 9.265567 0.582677 -0.000002 -0.000006 3.007988 -5.000229 7.998829 -0.000140 1.048526 -171.762346 7.401786 179.999991 -0.000005 -1.157003 152.312208 -3.522820 -1.709771 -0.000003 0.000003 0.522204 72.244024 6.811847 2.118350 39.090416 -6.163991 5.818490 -5.034199 179.422239 3.535538 -0.000005 -0.000004 -0.959141 -7.462152 0.270571 0.307819 -0.000002 -0.000002 0.028611 67.256429 -6.624367 -2.908238 25.456865 7.347524 0.000008 
59.415501 -17.081518 96.535805 -0.954213 -2.511700 44.244579 -0.965219 -0.235040 0.844895 2.076262 -0.475933 1.688060 3.721058 -0.455686 1.693126 -7.342898 5.958558 8.531473 3.068492 2.540027 7.018113 -10.978295 -41.272641 -11.916066 -66.415995 -215.134799 -69.377756 -0.000000 0.000004 -0.000008 43.904606 3.095161 -2.453485 -0.000001 0.000003 -2.999979 -5.000220 -7.998888 0.000125 -34.247921 53.507541 41.057640 -56.934558 121.085621 49.666462 0.000002 0.000002 0.000005 2.821376 9.296614 0.573043 -0.000000 -0.000006 3.007970 -5.000226 7.998831 -0.000137 0.985722 -171.765201 7.407431 179.999991 -0.000005 -1.158000 152.216967 -3.538359 -1.720390 -0.000002 0.000003 0.521402 72.201663 6.813732 2.116031 39.207055 -6.154069 5.823404 -5.078409 179.402363 3.531635 -0.000004 -0.000004 -0.957969 -7.491111 0.265297 0.309232 -0.000002 -0.000002 0.029363 67.243171 -6.616094 -2.929470 25.456866 7.347530 0.000007 
59.419205 -17.105316 96.536499 -0.947170 -2.489960 44.341653 -0.966707 -0.228465 0.847086 2.073127 -0.462825 1.692449 3.717921 -0.442524 1.697566 -7.397336 6.036477 8.520076 3.089552 2.425724 7.000774 -11.025187 -40.929116 -11.955314 -66.389924 -215.318886 -69.665498 -0.000001 0.000004 -0.000006 42.927548 3.244135 -2.447347 -0.000005 0.000002 -2.999978 -5.000224 -7.998891 0.000126 -34.297798 53.572005 41.110895 -56.968289 121.047413 49.761821 0.000000 0.000001 0.000003 2.894599 9.326483 0.563534 0.000000 -0.000005 3.007939 -5.000229 7.998831 -0.000136 0.924398 -171.767059 7.413379 179.999991 -0.000005 -1.158997 152.123189 -3.552126 -1.730040 -0.000001 0.000003 0.520780 72.161290 6.815457 2.114166 39.320894 -6.144423 5.828077 -5.121439 179.383471 3.529294 -0.000004 -0.000004 -0.956767 -7.519329 0.258938 0.310608 -0.000002 -0.000002 0.030119 67.229716 -6.607399 -2.951619 25.456866 7.347522 0.000009 
59.425301 -17.125519 96.538307 -0.939633 -2.469371 44.439711 -0.968078 -0.221624 0.849413 2.070243 -0.449177 1.697107 3.715034 -0.428819 1.702234 -7.451880 6.116481 8.507743 3.109749 2.309887 6.982151 -11.073514 -40.583232 -11.996957 -66.354536 -215.500583 -69.983928 -0.000002 0.000004 -0.000007 41.947754 3.369338 -2.430406 -0.000002 0.000004 -2.999977 -5.000220 -7.998891 0.000125 -34.348041 53.638083 41.164495 -57.004322 121.009232 49.856262 0.000001 0.000001 0.000003 2.966115 9.355063 0.554163 -0.000002 -0.000005 3.007908 -5.000232 7.998833 -0.000136 0.864939 -171.767933 7.419713 179.999991 -0.000005 -1.159992 152.030804 -3.565887 -1.740647 -0.000003 0.000003 0.520368 72.123417 6.816916 2.112803 39.431645 -6.135097 5.832434 -5.162879 179.366587 3.528609 -0.000005 -0.000005 -0.955545 -7.546574 0.251315 0.311950 -0.000002 -0.000002 0.030883 67.215919 -6.598298 -2.975010 25.456865 7.347525 0.000008 
59.432701 -17.149719 96.523407 -0.931606 -2.450116 44.539165 -0.969288 -0.214477 0.851876 2.067689 -0.434920 1.702057 3.712477 -0.414502 1.707136 -7.506577 6.198690 8.494299 3.128728 2.192490 6.962044 -11.123249 -40.235401 -12.041060 -66.307613 -215.679902 -70.335854 -0.000001 0.000004 -0.000008 40.965016 3.467672 -2.402706 -0.000002 0.000002 -2.999978 -5.000221 -7.998890 0.000123 -34.398783 53.706109 41.218464 -57.043978 120.970450 49.950966 0.000001 0.000001 0.000004 3.035917 9.382208 0.544895 0.000003 -0.000006 3.007876 -5.000226 7.998832 -0.000133 0.807738 -171.767810 7.426502 179.999991 -0.000005 -1.159994 151.940249 -3.578802 -1.749732 -0.000003 0.000004 0.520163 72.087948 6.818213 2.112175 39.539279 -6.126082 5.836387 -5.202315 179.351683 3.529802 -0.000005 -0.000004 -0.954294 -7.572638 0.242252 0.313228 -0.000002 -0.000002 0.031653 67.201992 -6.588626 -2.999491 25.456865 7.347521 0.000008 
59.431801 -17.172615 96.514801 -0.922454 -2.431983 44.639453 -0.970499 -0.207015 0.854524 2.065145 -0.420035 1.707383 3.709930 -0.399553 1.712374 -7.561680 6.283513 8.480040 3.147672 2.072799 6.940716 -11.178161 -39.878958 -12.092395 -66.249509 -215.855151 -70.743766 -0.000002 0.000004 -0.000007 39.973074 3.535754 -2.367893 -0.000004 0.000001 -2.999978 -5.000217 -7.998889 0.000123 -34.449606 53.777040 41.272224 -57.085167 120.931136 50.043369 0.000002 0.000002 0.000006 3.104921 9.407806 0.535785 0.000000 -0.000006 3.007836 -5.000230 7.998831 -0.000137 0.751967 -171.767701 7.433985 179.999991 -0.000004 -1.161001 151.850528 -3.590831 -1.759340 0.000000 0.000003 0.520310 72.055798 6.819174 2.112289 39.644115 -6.117412 5.839833 -5.241213 179.337777 3.533264 -0.000005 -0.000004 -0.952958 -7.598404 0.231824 0.314499 -0.000002 -0.000002 0.032432 67.187314 -6.578112 -3.026242 25.456865 7.347524 0.000009 
59.437809 -17.196917 96.515106 -0.911713 -2.414625 44.739887 -0.971864 -0.199269 0.857377 2.062292 -0.404587 1.713130 3.707073 -0.384037 1.718000 -7.617380 6.371138 8.465402 3.167812 1.950345 6.918628 -11.241037 -39.508659 -12.154239 -66.181439 -216.025865 -71.217262 -0.000002 0.000004 -0.000008 38.967496 3.574330 -2.330504 -0.000001 0.000000 -2.999981 -5.000223 -7.998890 0.000123 -34.499651 53.851817 41.324499 -57.128580 120.890291 50.134575 0.000000 0.000001 0.000004 3.173847 9.431930 0.526905 -0.000001 -0.000005 3.007798 -5.000231 7.998831 -0.000135 0.696588 -171.765597 7.442273 179.999991 -0.000004 -1.162003 151.760629 -3.601928 -1.767515 -0.000001 0.000004 0.520875 72.026981 6.819863 2.113259 39.746551 -6.109074 5.842754 -5.281147 179.326863 3.538777 -0.000005 -0.000004 -0.951477 -7.624787 0.220292 0.315814 -0.000002 -0.000002 0.033237 67.171837 -6.566549 -3.055524 25.456865 7.347521 0.000007 
59.448700 -17.224018 96.516396 -0.899646 -2.397945 44.840458 -0.973345 -0.191270 0.860421 2.059207 -0.388635 1.719241 3.703986 -0.368012 1.723970 -7.673561 6.461303 8.450395 3.188966 1.825429 6.895799 -11.310284 -39.126868 -12.224364 -66.101608 -216.192617 -71.751124 -0.000000 0.000002 -0.000004 37.950669 3.586489 -2.291897 -0.000005 0.000003 -2.999978 -5.000227 -7.998893 0.000122 -34.549170 53.929855 41.375790 -57.174708 120.848204 50.225448 0.000000 0.000001 0.000005 3.242362 9.454715 0.518271 -0.000002 -0.000004 3.007772 -5.000233 7.998831 -0.000134 0.641638 -171.762510 7.451175 179.999991 -0.000005 -1.162998 151.670716 -3.612992 -1.776735 -0.000004 0.000004 0.521794 72.001170 6.820239 2.114899 39.846494 -6.101024 5.845248 -5.321831 179.316945 3.546235 -0.000004 -0.000004 -0.949878 -7.651590 0.207756 0.317155 -0.000002 -0.000002 0.034048 67.155595 -6.554055 -3.087261 25.456865 7.347522 0.000008 
59.441708 -17.242521 96.452209 -0.886515 -2.381894 44.941350 -0.974913 -0.183047 0.863618 2.055954 -0.372236 1.725688 3.700730 -0.351537 1.730247 -7.730101 6.553786 8.435053 3.210927 1.698371 6.872315 -11.384284 -38.735727 -12.300566 -66.008417 -216.355804 -72.337004 0.000000 0.000004 -0.000005 36.925468 3.575394 -2.253233 -0.000004 0.000001 -2.999980 -5.000226 -7.998889 0.000120 -34.598450 54.010605 41.426419 -57.222533 120.805679 50.315077 -0.000001 0.000003 0.000007 3.310093 9.476302 0.509879 -0.000002 -0.000005 3.007729 -5.000232 7.998831 -0.000137 0.587158 -171.758426 7.460536 179.999991 -0.000004 -1.163997 151.581213 -3.624037 -1.784976 -0.000003 0.000003 0.523012 71.977763 6.820425 2.117256 39.944142 -6.093231 5.847447 -5.362964 179.309036 3.555264 -0.000004 -0.000004 -0.948192 -7.678615 0.194313 0.318515 -0.000002 -0.000002 0.034878 67.138874 -6.540877 -3.120485 25.456865 7.347526 0.000009 
59.441101 -17.261120 96.457710 -0.872569 -2.366395 45.042570 -0.976529 -0.174632 0.866954 2.052610 -0.355452 1.732421 3.697383 -0.334673 1.736786 -7.786895 6.648335 8.419383 3.233464 1.569478 6.848187 -11.461525 -38.337695 -12.380775 -65.901681 -216.516409 -72.964274 -0.000001 0.000004 -0.000007 35.894273 3.544190 -2.215472 -0.000004 0.000001 -2.999983 -5.000221 -7.998891 0.000122 -34.647466 54.093452 41.476450 -57.273581 120.762266 50.405604 -0.000000 0.000003 0.000004 3.376694 9.496835 0.501733 -0.000001 -0.000006 3.007698 -5.000233 7.998831 -0.000137 0.533193 -171.753358 7.470212 179.999991 -0.000005 -1.165007 151.492257 -3.633316 -1.793264 -0.000002 0.000004 0.524462 71.956514 6.820367 2.119944 40.039389 -6.085667 5.849448 -5.404283 179.303107 3.565566 -0.000004 -0.000005 -0.946446 -7.705667 0.180067 0.319870 -0.000002 -0.000001 0.035723 67.121785 -6.527110 -3.155208 25.456865 7.347525 0.000006 
59.453903 -17.292723 96.501701 -0.858073 -2.351387 45.144289 -0.978157 -0.166049 0.870414 2.049225 -0.338338 1.739384 3.693997 -0.317478 1.743548 -7.843803 6.744701 8.403421 3.256399 1.439061 6.823471 -11.540485 -37.934925 -12.462892 -65.780760 -216.674897 -73.627315 0.000000 0.000004 -0.000007 34.859752 3.496078 -2.179318 -0.000004 0.000002 -2.999983 -5.000218 -7.998889 0.000128 -34.696535 54.177856 41.526317 -57.327021 120.718881 50.496292 -0.000001 0.000002 0.000003 3.441821 9.516450 0.493835 -0.000002 -0.000005 3.007655 -5.000229 7.998831 -0.000136 0.479787 -171.747292 7.479999 179.999991 -0.000004 -1.166007 151.404216 -3.642595 -1.800528 0.000000 0.000004 0.526080 71.936823 6.820154 2.123214 40.132221 -6.078317 5.851371 -5.445492 179.297179 3.577067 -0.000004 -0.000004 -0.944653 -7.732562 0.165115 0.321215 -0.000002 -0.000001 0.036568 67.104437 -6.513060 -3.190683 25.456863 7.347522 0.000011 
59.408104 -17.365623 96.487793 -0.843281 -2.336816 45.246315 -0.979766 -0.157331 0.873967 2.045892 -0.320955 1.746548 3.690660 -0.300011 1.750481 -7.900731 6.842664 8.387165 3.279508 1.307458 6.798210 -11.619713 -37.530045 -12.545022 -65.645235 -216.831349 -74.315368 -0.000001 0.000005 -0.000007 33.824524 3.434241 -2.145293 -0.000006 0.000001 -2.999977 -5.000223 -7.998892 0.000123 -34.745999 54.263176 41.576410 -57.383247 120.675796 50.587892 -0.000000 0.000002 0.000006 3.505115 9.535298 0.486204 -0.000001 -0.000004 3.007630 -5.000228 7.998831 -0.000137 0.426975 -171.741227 7.489760 179.999991 -0.000004 -1.167001 151.317268 -3.651887 -1.808752 -0.000001 0.000004 0.527808 71.918292 6.819894 2.126602 40.222639 -6.071149 5.853316 -5.486291 179.292247 3.589376 -0.000004 -0.000004 -0.942854 -7.759097 0.149557 0.322539 -0.000002 -0.000002 0.037426 67.087040 -6.498801 -3.226515 25.456865 7.347530 0.000008 
